<?xml version="1.0" encoding="UTF-8" standalone="no"?>
<svg
   xmlns:dc="http://purl.org/dc/elements/1.1/"
   xmlns:cc="http://creativecommons.org/ns#"
   xmlns:rdf="http://www.w3.org/1999/02/22-rdf-syntax-ns#"
   xmlns:svg="http://www.w3.org/2000/svg"
   xmlns="http://www.w3.org/2000/svg"
   viewBox="0 0 660 660"
   height="660"
   width="660"
   xml:space="preserve"
   version="1.1"
   id="svg2"><metadata
     id="metadata8"><rdf:RDF><cc:Work
         rdf:about=""><dc:format>image/svg+xml</dc:format><dc:type
           rdf:resource="http://purl.org/dc/dcmitype/StillImage" /><dc:title></dc:title></cc:Work></rdf:RDF></metadata><defs
     id="defs6" /><g
     transform="matrix(1.25,0,0,-1.25,0,660)"
     id="g10"><g
       transform="matrix(1,0,0,-1,-26.470402,-226.35313)"
       id="g12"><path
         id="path14"
         style="fill:#137bb6;fill-opacity:1;fill-rule:nonzero;stroke:none"
         d="m 330.58789,-404.58496 c -24.17139,-2.9834 -48.52539,-4.64209 -72.88769,-4.14649 -23.32862,0.47461 -49.48682,2.37793 -70.71924,12.97901 -8.36231,4.17529 -15.83643,10.81543 -18.48731,20.02539 -2.3125,8.03467 -0.31006,16.26562 3.31934,23.5708 9.43359,18.98584 29.55664,29.48193 49.35547,33.93994 28.54883,6.42774 58.23535,4.39893 87.25195,4.12647 27.88135,-0.26221 55.85938,0.97558 83.59277,-2.6045 23.67334,-3.05615 51.77881,-9.94873 68.62745,-28.14111 11.15625,-12.04639 9.95703,-27.32324 1.42871,-40.44775 -9.85938,-15.17383 -25.57276,-26.29297 -40.7334,-35.64356 -16.82715,-10.3789 -34.87598,-17.76513 -53.61719,-23.9331 -52.98291,-17.43799 -111.37451,-23.99317 -166.11279,-11.11817 -37.97461,8.93213 -94.53174,30.00635 -85.41309,79.04737 3.39649,18.26562 15.45606,34.44043 28.67969,46.92334 16.89795,15.95117 37.20068,26.01318 58.95019,33.6665 53.81836,18.93896 112.72315,20.92432 168.75977,12.479 26.50781,-3.99463 52.84521,-10.46093 78.19775,-19.17822 20.82764,-7.16162 41.85547,-17.47363 56.96143,-33.88623 14.71435,-15.98633 20.96533,-38.37451 12.86621,-59.01807 -7.88818,-20.10595 -26.11328,-34.60791 -43.27051,-46.6289 -39.59228,-27.74072 -83.6626,-48.40235 -129.87646,-62.4419 -48.63672,-14.77588 -100.30664,-22.21875 -151.09864,-17.71435 -46.93554,4.1626 -95.10058,19.51269 -127.33569,55.49414 -15.28808,17.06494 -25.86011,38.79297 -22.84863,62.12695 3.11133,24.10742 18.23462,45.76758 34.44556,63.0586 37.27246,39.75537 89.56933,63.45459 141.22851,78.10595 51.37744,14.57129 105.74707,19.35498 159.0293,17.62451 45.0376,-1.46289 97.97754,-9.2788 130.85205,-43.29443 32.78174,-33.92041 28.07715,-88.84424 5.75195,-126.91943 -22.12988,-37.74268 -61.73389,-59.62744 -103.44287,-68.92481 -37.66357,-8.39599 -77.14941,-7.8125 -115.1958,-2.41699 -5.41162,0.76758 0.0869,7.10059 3.79199,6.5752 42.53028,-6.03125 87.15186,-6.16114 128.51758,6.58984 42.75195,13.17871 78.21924,43.53467 91.05566,87.29394 6.5752,22.41358 6.57129,47.2251 -2.35546,68.98487 -9.07325,22.11621 -28.10254,37.1499 -49.28614,46.99267 -43.21338,20.07813 -94.27832,20.27344 -140.93164,17.94971 -59.42724,-2.95996 -118.06885,-14.94238 -171.89599,-40.91211 -23.46192,-11.31933 -45.35059,-25.43115 -64.2251,-43.47656 -18.22583,-17.42529 -33.44019,-38.51026 -38.60889,-63.55078 -5.01611,-24.30225 8.95459,-47.91846 25.14209,-64.79248 16.62402,-17.32862 37.32276,-29.23828 59.80274,-37.22119 47.51269,-16.87305 99.85839,-16.792 149.13183,-8.94483 50.3418,8.01758 99.58496,25.0752 144.37842,49.34863 19.68262,10.66602 39.21143,22.89161 56.29834,37.41651 17.15088,14.58008 29.79932,33.92871 25.06348,57.21631 -4.63868,22.80761 -25.20752,38.64795 -44.71338,48.74218 -21.98389,11.37696 -46.80811,17.99756 -70.82032,23.47022 -56.22119,12.81396 -115.84765,14.91894 -171.99902,0.66016 -40.69433,-10.3335 -89.41601,-32.0127 -101.80762,-76.51221 -14.11377,-50.6836 51.87207,-71.93604 89.17774,-79.32569 56.44043,-11.18017 115.45752,-1.63671 168.83008,18.2754 16.52734,6.16601 32.25683,14.64892 46.58691,24.92871 12.78272,9.16943 27.96289,21.75439 30.50195,38.27343 3.23047,21.01563 -23.51074,33.3086 -39.10547,38.95264 -26.53564,9.60352 -55.60302,10.21289 -83.50195,10.29395 -29.17236,0.0845 -58.61572,1.45605 -87.74658,-0.10645 -24.0835,-1.2915 -49.83105,-5.10986 -65.97412,-24.77881 -8.07324,-9.83642 -11.3833,-23.23974 -3.73877,-34.23828 9.15625,-13.17285 29.83984,-16.80713 44.48242,-19.25732 35.29981,-5.90723 72.11328,-3.35547 107.44434,1.00586 5.8667,0.72412 2.30713,-6.06202 -1.75391,-6.56348 0,0 0,0 0,0 z" /><path
         id="path16"
         style="fill:#fee702;fill-opacity:1;fill-rule:nonzero;stroke:none"
         d="m 140.87549,-609.84521 c 0,0 83.18506,91.60498 55.96289,115.58837 -27.22168,23.98291 -57.01172,143.62549 55.61914,158.53955 217.26709,28.77002 175.43457,-85.13281 175.43457,-85.13281 0,0 42.04199,-56.1333 41.6958,-65.25097 -0.90137,-23.75391 -142.88623,4.57763 -120.33789,6.91357 -71.15381,-7.37109 -97.5,-45 -97.5,-45 0,0 70.5,-9 49.5,-46.5 -21,-37.5 -66,-46.5 -91.5,-39 -25.5,7.5 -24.75,6.6875 -34.5,12 0,0 -34.37451,-12.15771 -34.37451,-12.15771 z" /><path
         id="path18"
         style="fill:none;stroke:#f68313;stroke-width:2;stroke-linecap:butt;stroke-linejoin:miter;stroke-miterlimit:4;stroke-dasharray:none;stroke-opacity:1"
         d="m 140.87549,-609.84521 c 0,0 83.18506,91.60498 55.96289,115.58837 -27.22168,23.98291 -57.01172,143.62549 55.61914,158.53955 217.26709,28.77002 175.43457,-85.13281 175.43457,-85.13281 0,0 42.04199,-56.1333 41.6958,-65.25097 -0.90137,-23.75391 -142.88623,4.57763 -120.33789,6.91357 -71.15381,-7.37109 -97.5,-45 -97.5,-45 0,0 70.5,-9 49.5,-46.5 -21,-37.5 -66,-46.5 -91.5,-39 -25.5,7.5 -24.75,6.6875 -34.5,12 0,0 -34.37451,-12.15771 -34.37451,-12.15771 z" /><path
         id="path20"
         style="fill:none;stroke:#f68313;stroke-width:2;stroke-linecap:butt;stroke-linejoin:miter;stroke-miterlimit:4;stroke-dasharray:none;stroke-opacity:1"
         d="m 206.25,-592.5625 c 0,0 16,6 14.5,14.5" /><path
         id="path22"
         style="fill:none;stroke:#f68313;stroke-width:2;stroke-linecap:butt;stroke-linejoin:miter;stroke-miterlimit:4;stroke-dasharray:none;stroke-opacity:1"
         d="m 175.25,-597.6875 c 0,0 12.75,11.1875 3.25,10.6875 -9.5,-0.5 -36.5,-23 -36.5,-23 0,0 34.5,22.5 34.5,22.5 0,0 1.5,12.5 -6,11.5" /><path
         id="path24"
         style="fill:none;stroke:#f68313;stroke-width:2;stroke-linecap:butt;stroke-linejoin:miter;stroke-miterlimit:4;stroke-dasharray:none;stroke-opacity:1"
         d="m 264,-451.1875 c 0,0 -45,0.5 -33,28.5 0,0 11,27 35.5,30.5 0,0 -8.5,-5.5 -13,-22.5 0,0 15,22.5 31.5,19.5 0,0 -17.5,-14.5 -13,-21 0,0 13,19 35.5,15.5 0,0 -11.5,-5.5 -12.5,-14 -1,-8.5 33.5,19.5 65,-1 0,0 -14.5,0 -17,-5.5" /></g></g></svg>